<?xml version="1.0" standalone="no"?>
<!DOCTYPE svg PUBLIC "-//W3C//DTD SVG 20010904//EN"
 "http://www.w3.org/TR/2001/REC-SVG-20010904/DTD/svg10.dtd">
<svg version="1.0" xmlns="http://www.w3.org/2000/svg"
 width="660.000000pt" height="660.000000pt" viewBox="0 0 660.000000 660.000000"
 preserveAspectRatio="xMidYMid meet">
<metadata>
Created by potrace 1.14, written by Peter Selinger 2001-2017
</metadata>
<g transform="translate(0.000000,660.000000) scale(0.100000,-0.100000)"
fill="#000000" stroke="none">
<path d="M3109 6526 c-2 -2 -28 -7 -58 -11 -61 -8 -85 -12 -109 -19 -9 -3 -32
-8 -49 -11 -96 -16 -293 -99 -413 -174 -285 -178 -499 -476 -556 -776 -13 -70
-16 -76 -32 -69 -25 10 -112 35 -147 41 -16 2 -50 9 -75 13 -113 21 -315 5
-455 -35 -66 -20 -208 -84 -213 -97 -2 -4 -8 -8 -14 -8 -20 0 -135 -89 -202
-156 -137 -137 -225 -305 -266 -509 -13 -63 -17 -266 -7 -325 17 -95 28 -140
45 -190 113 -317 336 -514 717 -630 l90 -27 0 -372 c0 -364 0 -372 -20 -376
-270 -53 -443 -168 -563 -372 -94 -160 -126 -393 -78 -571 65 -240 254 -440
491 -522 27 -9 55 -18 60 -18 58 -7 96 -16 101 -24 4 -6 7 -128 8 -271 2 -240
4 -269 26 -347 41 -150 125 -289 237 -392 45 -43 119 -98 130 -98 3 0 14 -6
22 -14 29 -24 165 -74 242 -89 64 -12 274 -14 1300 -13 1380 2 1275 -4 1454
81 102 48 135 71 219 153 111 108 202 271 222 400 3 21 9 42 12 47 4 6 8 129
9 275 1 146 2 268 2 273 1 4 13 7 27 7 51 0 150 32 244 78 154 75 288 221 353
384 42 103 57 195 53 306 -6 118 -11 146 -43 235 -39 109 -90 186 -182 277
-79 78 -109 99 -213 151 -40 21 -168 58 -210 61 -17 1 -28 8 -29 18 -7 119 -2
733 6 736 236 72 314 106 441 190 86 57 175 142 229 220 19 27 38 54 43 60 16
19 80 168 96 224 36 126 49 297 32 425 -50 385 -312 693 -691 815 -122 39
-171 45 -335 45 -106 -1 -155 -6 -230 -24 -52 -13 -103 -28 -113 -33 -23 -12
-26 -8 -33 28 -68 385 -340 725 -719 899 -105 48 -260 97 -350 110 -23 3 -52
8 -65 12 -27 6 -435 15 -441 9z"/>
</g>
</svg>
